<svg width="32" height="32" viewBox="0 0 32 32" fill="none" xmlns="http://www.w3.org/2000/svg">
<path d="M18.65 23.62C18.9974 23.62 19.3306 23.482 19.5763 23.2363C19.822 22.9906 19.96 22.6574 19.96 22.31C19.96 21.9626 19.822 21.6294 19.5763 21.3837C19.3306 21.138 18.9974 21 18.65 21C18.3026 21 17.9694 21.138 17.7237 21.3837C17.478 21.6294 17.34 21.9626 17.34 22.31C17.34 22.6574 17.478 22.9906 17.7237 23.2363C17.9694 23.482 18.3026 23.62 18.65 23.62ZM14.66 22.31C14.66 22.482 14.6261 22.6524 14.5603 22.8113C14.4944 22.9703 14.398 23.1147 14.2763 23.2363C14.1547 23.358 14.0103 23.4544 13.8513 23.5203C13.6924 23.5861 13.522 23.62 13.35 23.62C13.178 23.62 13.0076 23.5861 12.8487 23.5203C12.6897 23.4544 12.5453 23.358 12.4237 23.2363C12.302 23.1147 12.2056 22.9703 12.1397 22.8113C12.0739 22.6524 12.04 22.482 12.04 22.31C12.04 21.9626 12.178 21.6294 12.4237 21.3837C12.6694 21.138 13.0026 21 13.35 21C13.6974 21 14.0306 21.138 14.2763 21.3837C14.522 21.6294 14.66 21.9626 14.66 22.31ZM17.57 25.61C17.57 25.9574 17.432 26.2906 17.1863 26.5363C16.9406 26.782 16.6074 26.92 16.26 26.92C15.9126 26.92 15.5794 26.782 15.3337 26.5363C15.088 26.2906 14.95 25.9574 14.95 25.61C14.95 25.2626 15.088 24.9294 15.3337 24.6837C15.5794 24.438 15.9126 24.3 16.26 24.3C16.6074 24.3 16.9406 24.438 17.1863 24.6837C17.432 24.9294 17.57 25.2626 17.57 25.61ZM12.31 26.92C12.6574 26.92 12.9906 26.782 13.2363 26.5363C13.482 26.2906 13.62 25.9574 13.62 25.61C13.62 25.2626 13.482 24.9294 13.2363 24.6837C12.9906 24.438 12.6574 24.3 12.31 24.3C11.9626 24.3 11.6294 24.438 11.3837 24.6837C11.138 24.9294 11 25.2626 11 25.61C11 25.9574 11.138 26.2906 11.3837 26.5363C11.6294 26.782 11.9626 26.92 12.31 26.92Z" fill="#868686"/>
<path d="M17 2V7H25C25.2652 7 25.5196 7.10536 25.7071 7.29289C25.8946 7.48043 26 7.73478 26 8C26 8.26522 25.8946 8.51957 25.7071 8.70711C25.5196 8.89464 25.2652 9 25 9L23 29C22.903 29.605 22.5 30 22 30H10C9.5 30 9.076 29.563 9 29L7 9C6.73478 9 6.48043 8.89464 6.29289 8.70711C6.10536 8.51957 6 8.26522 6 8C6 7.73478 6.10536 7.48043 6.29289 7.29289C6.48043 7.10536 6.73478 7 7 7H15V2H17ZM9.235 11.25L10.91 28H21.09L21.25 26.408C21.0766 26.634 20.8343 26.7973 20.5597 26.8732C20.2852 26.9491 19.9934 26.9334 19.7285 26.8286C19.4637 26.7237 19.2402 26.5354 19.092 26.2922C18.9438 26.0489 18.8789 25.764 18.9072 25.4806C18.9354 25.1971 19.0553 24.9306 19.2486 24.7214C19.4419 24.5122 19.6982 24.3718 19.9785 24.3213C20.2589 24.2708 20.548 24.3131 20.8022 24.4417C21.0563 24.5703 21.2616 24.7782 21.387 25.034L22.765 11.25H9.235Z" fill="#868686"/>
</svg>
