<svg width="32" height="32" viewBox="0 0 32 32" fill="none" xmlns="http://www.w3.org/2000/svg">
<path d="M14.6666 24C12.0889 24 9.88887 23.0889 8.06665 21.2667C6.24442 19.4444 5.33331 17.2444 5.33331 14.6667V6.66667C5.33331 5.93333 5.59465 5.30533 6.11731 4.78267C6.63909 4.26089 7.26665 4 7.99998 4H24.6666C25.9555 4 27.0555 4.45556 27.9666 5.36667C28.8778 6.27778 29.3333 7.37778 29.3333 8.66667C29.3333 9.95556 28.8778 11.0556 27.9666 11.9667C27.0555 12.8778 25.9555 13.3333 24.6666 13.3333H24V14.6667C24 17.2444 23.0889 19.4444 21.2666 21.2667C19.4444 23.0889 17.2444 24 14.6666 24ZM7.99998 10.6667H21.3333V6.66667H7.99998V10.6667ZM24 10.6667H24.6666C25.2222 10.6667 25.6942 10.472 26.0826 10.0827C26.472 9.69422 26.6666 9.22222 26.6666 8.66667C26.6666 8.11111 26.472 7.63911 26.0826 7.25067C25.6942 6.86133 25.2222 6.66667 24.6666 6.66667H24V10.6667ZM5.33331 28V25.3333H26.6666V28H5.33331Z" fill="#868686"/>
</svg>
