<svg width="24" height="25" viewBox="0 0 24 25" fill="none" xmlns="http://www.w3.org/2000/svg">
<path d="M5 21.5C4.45 21.5 3.979 21.3043 3.587 20.913C3.19567 20.521 3 20.05 3 19.5V5.5C3 4.95 3.19567 4.479 3.587 4.087C3.979 3.69567 4.45 3.5 5 3.5H9C9.55 3.5 10.021 3.69567 10.413 4.087C10.8043 4.479 11 4.95 11 5.5V19.5C11 20.05 10.8043 20.521 10.413 20.913C10.021 21.3043 9.55 21.5 9 21.5H5ZM15 10.5C14.45 10.5 13.9793 10.304 13.588 9.912C13.196 9.52067 13 9.05 13 8.5V5.5C13 4.95 13.196 4.479 13.588 4.087C13.9793 3.69567 14.45 3.5 15 3.5H19C19.55 3.5 20.021 3.69567 20.413 4.087C20.8043 4.479 21 4.95 21 5.5V8.5C21 9.05 20.8043 9.52067 20.413 9.912C20.021 10.304 19.55 10.5 19 10.5H15ZM15 21.5C14.45 21.5 13.9793 21.3043 13.588 20.913C13.196 20.521 13 20.05 13 19.5V14.5C13 13.95 13.196 13.479 13.588 13.087C13.9793 12.6957 14.45 12.5 15 12.5H19C19.55 12.5 20.021 12.6957 20.413 13.087C20.8043 13.479 21 13.95 21 14.5V19.5C21 20.05 20.8043 20.521 20.413 20.913C20.021 21.3043 19.55 21.5 19 21.5H15Z" fill="white"/>
</svg>
