<svg width="24" height="25" viewBox="0 0 24 25" fill="none" xmlns="http://www.w3.org/2000/svg">
<path d="M11 18.5C9.06667 18.5 7.41667 17.8167 6.05 16.45C4.68333 15.0833 4 13.4333 4 11.5V5.5C4 4.95 4.196 4.479 4.588 4.087C4.97933 3.69567 5.45 3.5 6 3.5H18.5C19.4667 3.5 20.2917 3.84167 20.975 4.525C21.6583 5.20833 22 6.03333 22 7C22 7.96667 21.6583 8.79167 20.975 9.475C20.2917 10.1583 19.4667 10.5 18.5 10.5H18V11.5C18 13.4333 17.3167 15.0833 15.95 16.45C14.5833 17.8167 12.9333 18.5 11 18.5ZM6 8.5H16V5.5H6V8.5ZM18 8.5H18.5C18.9167 8.5 19.2707 8.354 19.562 8.062C19.854 7.77067 20 7.41667 20 7C20 6.58333 19.854 6.22933 19.562 5.938C19.2707 5.646 18.9167 5.5 18.5 5.5H18V8.5ZM4 21.5V19.5H20V21.5H4Z" fill="white"/>
</svg>
