<svg width="32" height="32" viewBox="0 0 32 32" fill="none" xmlns="http://www.w3.org/2000/svg">
<mask id="mask0_625_6145" style="mask-type:luminance" maskUnits="userSpaceOnUse" x="7" y="1" width="18" height="30">
<path d="M8 13.0494C8 12.7995 8.07022 12.5546 8.20267 12.3427L11.3333 7.33337H20.6667L23.7973 12.3427C23.9298 12.5546 24 12.7995 24 13.0494V28C24 28.3537 23.8595 28.6928 23.6095 28.9429C23.3594 29.1929 23.0203 29.3334 22.6667 29.3334H9.33333C8.97971 29.3334 8.64057 29.1929 8.39052 28.9429C8.14048 28.6928 8 28.3537 8 28V13.0494Z" fill="#868686" stroke="white" stroke-width="2" stroke-linecap="round" stroke-linejoin="round"/>
<path d="M12.6667 22V16L16 20L19.3334 16V22" stroke="black" stroke-width="2" stroke-linecap="round" stroke-linejoin="round"/>
<path d="M11.3333 2.66669H20.6666V7.33335H11.3333V2.66669Z" stroke="white" stroke-width="2" stroke-linecap="round" stroke-linejoin="round"/>
</mask>
<g mask="url(#mask0_625_6145)">
<path d="M0 0H32V32H0V0Z" fill="#868686"/>
</g>
</svg>
