<svg width="32" height="32" viewBox="0 0 32 32" fill="none" xmlns="http://www.w3.org/2000/svg">
<path d="M16 2C16.8841 2 17.7319 2.35119 18.357 2.97631C18.9822 3.60143 19.3334 4.44928 19.3334 5.33333C19.3334 6.21739 18.9822 7.06523 18.357 7.69036C17.7319 8.31548 16.8841 8.66667 16 8.66667C15.116 8.66667 14.2681 8.31548 13.643 7.69036C13.0179 7.06523 12.6667 6.21739 12.6667 5.33333C12.6667 4.44928 13.0179 3.60143 13.643 2.97631C14.2681 2.35119 15.116 2 16 2ZM21.16 6.66667C24 6.66667 26.6667 9.33333 26.6667 12C30.2667 12 30.2667 17.3333 26.6667 17.3333H5.33336C1.73336 17.3333 1.73336 12 5.33336 12C5.33336 9.33333 8.00003 6.66667 10.84 6.66667C11.4267 8.97333 13.52 10.6667 16 10.6667C18.48 10.6667 20.5734 8.97333 21.16 6.66667ZM6.6667 20H10.6667L12 29.3333H9.33336L6.6667 20ZM13.3334 20H18.6667L17.3334 29.3333H14.6667L13.3334 20ZM21.3334 20H25.3334L22.6667 29.3333H20L21.3334 20Z" fill="#868686"/>
</svg>
