<svg width="24" height="25" viewBox="0 0 24 25" fill="none" xmlns="http://www.w3.org/2000/svg">
<path d="M6 20.5C5.45 20.5 4.97933 20.3043 4.588 19.913C4.196 19.521 4 19.05 4 18.5V11.5C4 10.95 4.196 10.479 4.588 10.087C4.97933 9.69567 5.45 9.5 6 9.5C6.55 9.5 7.02067 9.69567 7.412 10.087C7.804 10.479 8 10.95 8 11.5V18.5C8 19.05 7.804 19.521 7.412 19.913C7.02067 20.3043 6.55 20.5 6 20.5ZM12 20.5C11.45 20.5 10.9793 20.3043 10.588 19.913C10.196 19.521 10 19.05 10 18.5V6.5C10 5.95 10.196 5.47933 10.588 5.088C10.9793 4.696 11.45 4.5 12 4.5C12.55 4.5 13.021 4.696 13.413 5.088C13.8043 5.47933 14 5.95 14 6.5V18.5C14 19.05 13.8043 19.521 13.413 19.913C13.021 20.3043 12.55 20.5 12 20.5ZM18 20.5C17.45 20.5 16.979 20.3043 16.587 19.913C16.1957 19.521 16 19.05 16 18.5V15.5C16 14.95 16.1957 14.479 16.587 14.087C16.979 13.6957 17.45 13.5 18 13.5C18.55 13.5 19.021 13.6957 19.413 14.087C19.8043 14.479 20 14.95 20 15.5V18.5C20 19.05 19.8043 19.521 19.413 19.913C19.021 20.3043 18.55 20.5 18 20.5Z" fill="white"/>
</svg>
