<svg width="32" height="32" viewBox="0 0 32 32" fill="none" xmlns="http://www.w3.org/2000/svg">
<path d="M5.33331 25.3333H26.6666V28H5.33331V25.3333ZM26.6666 10.6667V6.66667H24V10.6667H26.6666ZM26.6666 4C27.4666 4 28 4.26667 28.5333 4.8C29.0666 5.33333 29.3333 6 29.3333 6.66667V10.6667C29.3333 11.4667 29.0666 12 28.5333 12.5333C28 13.0667 27.4666 13.3333 26.6666 13.3333H24V17.3333C24 18.8 23.4666 20 22.4 21.0667C21.3333 22.1333 20.1333 22.6667 18.6666 22.6667H10.6666C9.19998 22.6667 7.99998 22.1333 6.93331 21.0667C5.86665 20 5.33331 18.8 5.33331 17.3333V4H12V7.2L9.59998 9.06667C9.46665 9.2 9.33331 9.46667 9.33331 9.6V15.3333C9.33331 15.7333 9.59998 16 9.99998 16H15.3333C15.7333 16 16 15.7333 16 15.3333V9.6C16 9.33333 15.8666 9.2 15.7333 9.06667L13.3333 7.2V4H26.6666Z" fill="#868686"/>
</svg>
