<svg width="24" height="25" viewBox="0 0 24 25" fill="none" xmlns="http://www.w3.org/2000/svg">
<path d="M15.6094 18.5745C15.6913 18.6856 15.74 18.8177 15.7499 18.9554C15.7599 19.0931 15.7307 19.2308 15.6656 19.3526C15.6014 19.4736 15.5056 19.5749 15.3884 19.6459C15.2712 19.7169 15.137 19.7548 15 19.7557H1.50001C1.36302 19.7548 1.22882 19.7169 1.11163 19.6459C0.994453 19.5749 0.898652 19.4736 0.834385 19.3526C0.769349 19.2308 0.740118 19.0931 0.750072 18.9554C0.760027 18.8177 0.80876 18.6856 0.890635 18.5745C1.93883 17.0757 3.42092 15.9338 5.13751 15.3026C4.13125 14.6341 3.36693 13.6595 2.95766 12.5229C2.54838 11.3863 2.51591 10.1481 2.86503 8.99157C3.21416 7.83507 3.92633 6.82169 4.89617 6.1014C5.866 5.38111 7.04196 4.99219 8.25001 4.99219C9.45806 4.99219 10.634 5.38111 11.6039 6.1014C12.5737 6.82169 13.2859 7.83507 13.635 8.99157C13.9841 10.1481 13.9516 11.3863 13.5424 12.5229C13.1331 13.6595 12.3688 14.6341 11.3625 15.3026C13.0791 15.9338 14.5612 17.0757 15.6094 18.5745ZM23.2594 18.5745C22.2052 17.0775 20.7208 15.9364 19.0031 15.3026C20.0126 14.6367 20.7801 13.6627 21.1915 12.5255C21.6029 11.3883 21.6362 10.1487 21.2865 8.99109C20.9368 7.83346 20.2227 6.81964 19.2505 6.10044C18.2783 5.38125 17.0999 4.99511 15.8906 4.99946C15.3745 5.0022 14.8609 5.07152 14.3625 5.20571C14.2454 5.24087 14.1385 5.30344 14.0504 5.38822C13.9624 5.473 13.8958 5.57756 13.8563 5.69321C13.8185 5.80792 13.8091 5.93003 13.8286 6.04918C13.8482 6.16834 13.8963 6.28099 13.9688 6.37759C14.8166 7.51681 15.3038 8.88395 15.3673 10.3027C15.4308 11.7214 15.0677 13.1265 14.325 14.337C14.2298 14.4978 14.1972 14.6881 14.2335 14.8715C14.2698 15.0548 14.3725 15.2183 14.5219 15.3307C14.8031 15.5495 15.075 15.7745 15.3375 16.0057L15.3844 16.0526C16.3851 16.9786 17.1969 18.0897 17.775 19.3245C17.8343 19.4535 17.9295 19.5628 18.0492 19.6392C18.1689 19.7157 18.308 19.7561 18.45 19.7557H22.6406C22.7776 19.7548 22.9118 19.7169 23.029 19.6459C23.1462 19.5749 23.242 19.4736 23.3063 19.3526C23.3705 19.231 23.4001 19.0942 23.3919 18.957C23.3836 18.8197 23.3378 18.6874 23.2594 18.5745Z" fill="white"/>
</svg>
