<svg width="60" height="53" viewBox="0 0 60 53" fill="none" xmlns="http://www.w3.org/2000/svg">
<g clip-path="url(#clip0_859_3697)">
<path fill-rule="evenodd" clip-rule="evenodd" d="M37.5 45C39.4698 45 41.4204 44.6119 43.2402 43.8582C45.0601 43.1043 46.7137 41.9995 48.1066 40.6066C49.4995 39.2137 50.6043 37.5601 51.3582 35.7402C52.1119 33.9204 52.5 31.9698 52.5 30C52.5 24.0327 50.1294 18.3096 45.9099 14.0901C41.6904 9.87053 35.9673 7.5 30 7.5C24.0327 7.5 18.3096 9.87053 14.0901 14.0901C9.87053 18.3096 7.5 24.0327 7.5 30C7.5 31.9698 7.88799 33.9204 8.6418 35.7402C9.39562 37.5601 10.5005 39.2137 11.8934 40.6066C13.2863 41.9995 14.9399 43.1043 16.7598 43.8582C18.5796 44.6119 20.5302 45 22.5 45H37.5ZM30 13.5C25.6239 13.5 21.427 15.2383 18.3327 18.3327C15.2383 21.427 13.5 25.6239 13.5 30C13.5 31.1818 13.7328 32.3521 14.1851 33.4441C14.6374 34.5361 15.3003 35.5282 16.1361 36.3639C16.9717 37.1997 17.9639 37.8625 19.0559 38.3149C20.1478 38.7672 21.3181 39 22.5 39H37.5C38.6818 39 39.8521 38.7672 40.9441 38.3149C42.0361 37.8625 43.0282 37.1997 43.8639 36.3639C44.6997 35.5282 45.3625 34.5361 45.8149 33.4441C46.2672 32.3521 46.5 31.1818 46.5 30C46.5 25.6239 44.7616 21.427 41.6673 18.3327C38.5729 15.2383 34.3761 13.5 30 13.5Z" fill="white"/>
<path fill-rule="evenodd" clip-rule="evenodd" d="M19.5 52.5C16.9392 52.5 14.4036 51.918 12.0377 50.7873C9.67188 49.6566 7.5222 47.9992 5.71142 45.9099C3.90071 43.8205 2.46433 41.3403 1.48435 38.6104C0.504386 35.8806 0 32.9547 0 30C0 22.0435 3.16071 14.4129 8.78681 8.78679C14.4129 3.16071 22.0436 0 30 0C37.9565 0 45.5871 3.16071 51.2132 8.78679C56.8394 14.4129 60 22.0435 60 30C60 32.9547 59.4955 35.8806 58.5156 38.6104C57.5356 41.3403 56.0993 43.8205 54.2886 45.9099C52.4778 47.9992 50.3281 49.6566 47.9623 50.7873C45.5964 51.918 43.0608 52.5 40.5 52.5H19.5ZM13.0294 13.0294C17.5303 8.52856 23.6348 6 30 6C36.3652 6 42.4697 8.52856 46.9706 13.0294C51.4715 17.5303 54 23.6347 54 30C54 32.2768 53.6106 34.516 52.8686 36.5832C52.1265 38.6502 51.0564 40.4781 49.7544 41.9803C48.4539 43.4809 46.9567 44.6178 45.375 45.3738C43.7971 46.128 42.1436 46.5 40.5 46.5H19.5C17.8564 46.5 16.2029 46.128 14.625 45.3738C13.0432 44.6178 11.5461 43.4809 10.2456 41.9803C8.94363 40.4781 7.87355 38.6502 7.1315 36.5832C6.38942 34.516 6 32.2768 6 30C6 23.6347 8.52856 17.5303 13.0294 13.0294Z" fill="white"/>
<path d="M37.5 37.5H29.9934C29.4894 37.4995 28.9892 37.4482 28.5 37.3485C27.552 37.155 26.6456 36.7788 25.8333 36.2359C24.5999 35.4118 23.6385 34.2406 23.0709 32.8701C22.8868 32.4256 22.7467 31.9668 22.6515 31.5C22.4529 30.5272 22.4485 29.5198 22.6441 28.5367C22.9335 27.0819 23.6478 25.7455 24.6968 24.6967C25.7456 23.6478 27.0819 22.9335 28.5367 22.6441C28.5823 22.635 28.6278 22.6264 28.6734 22.6182C29.1131 22.5393 29.557 22.5 30 22.5C30.9803 22.5 31.9557 22.6921 32.8701 23.0709C34.2405 23.6385 35.4119 24.5998 36.236 25.8331C37.0602 27.0666 37.5 28.5166 37.5 30H31.5C31.5 29.7033 31.4121 29.4133 31.2472 29.1666C31.0824 28.92 30.8481 28.7277 30.574 28.6141C30.3 28.5006 29.9983 28.4709 29.7073 28.5288C29.4163 28.5867 29.149 28.7295 28.9394 28.9393C28.7295 29.149 28.5867 29.4163 28.5288 29.7073C28.4709 29.9983 28.5006 30.3 28.6141 30.574C28.7277 30.8481 28.92 31.0824 29.1666 31.2472C29.4134 31.4121 29.7033 31.5 30 31.5H37.5C37.697 31.5 37.8921 31.4611 38.0741 31.3858C38.256 31.3104 38.4213 31.2 38.5606 31.0606C38.7 30.9213 38.8104 30.756 38.8859 30.574C38.9612 30.3921 39 30.1969 39 30C39 27.613 38.0518 25.3239 36.3639 23.6361C34.6761 21.9481 32.3869 21 30 21C29.7411 21 29.4834 21.0111 29.2275 21.0331C28.5986 21.0873 27.9802 21.2073 27.3825 21.3891C26.7943 21.5677 26.226 21.8064 25.6865 22.101C25.0684 22.4385 24.4882 22.8495 23.9595 23.3283C23.8494 23.4279 23.7415 23.5305 23.6361 23.6361C22.8976 24.3744 22.3008 25.228 21.863 26.1544C21.6441 26.6176 21.4649 27.099 21.3278 27.5934C21.1709 28.1586 21.0688 28.7406 21.0249 29.3316C21.0084 29.5533 21 29.7762 21 30C21 31.1761 21.2306 32.3469 21.6851 33.4441C22.3664 35.0887 23.5198 36.4942 24.9999 37.4832C25.0083 37.4889 25.0167 37.4944 25.0251 37.5H22.5C21.5151 37.5 20.5398 37.306 19.6299 36.9291C18.72 36.5521 17.8932 35.9997 17.1968 35.3032C16.5003 34.6068 15.9478 33.78 15.5709 32.8701C15.1939 31.9602 15 30.9849 15 30C15 26.0217 16.5804 22.2064 19.3933 19.3933C22.2064 16.5804 26.0217 15 30 15C33.9783 15 37.7936 16.5804 40.6067 19.3933C43.4196 22.2064 45 26.0217 45 30C45 30.9849 44.806 31.9602 44.4291 32.8701C44.0522 33.78 43.4997 34.6068 42.8032 35.3032C42.1068 35.9997 41.28 36.5521 40.3701 36.9291C39.4602 37.306 38.4849 37.5 37.5 37.5Z" fill="white"/>
</g>
<defs>
<clipPath id="clip0_859_3697">
<rect width="60" height="52.5" fill="white"/>
</clipPath>
</defs>
</svg>
